<?xml version="1.0" standalone="no"?>
<!DOCTYPE svg PUBLIC "-//W3C//DTD SVG 20010904//EN"
 "http://www.w3.org/TR/2001/REC-SVG-20010904/DTD/svg10.dtd">
<svg version="1.0" xmlns="http://www.w3.org/2000/svg"
 width="1532.000000pt" height="1532.000000pt" viewBox="0 0 1532.000000 1532.000000"
 preserveAspectRatio="xMidYMid meet">
<metadata>
Created by potrace 1.16, written by Peter Selinger 2001-2019
</metadata>
<g transform="translate(0.000000,1532.000000) scale(0.100000,-0.100000)"
fill="#000000" stroke="none">
<path d="M4480 8044 c-8 -2 -72 -8 -141 -13 -70 -6 -134 -14 -143 -17 -15 -6
-16 -47 -14 -443 l3 -436 100 0 100 0 5 140 5 140 134 3 134 3 36 -39 c20 -21
65 -86 100 -145 l64 -107 104 0 c101 0 103 0 103 23 0 13 -34 81 -76 151 l-76
127 55 53 c66 63 87 120 87 237 0 112 -15 169 -57 218 -68 80 -179 112 -383
110 -69 -1 -132 -3 -140 -5z m304 -208 c63 -26 83 -91 50 -161 -25 -54 -68
-65 -253 -65 -199 0 -193 -5 -189 128 l3 97 30 6 c62 13 324 10 359 -5z"/>
<path d="M11765 8043 c-16 -2 -65 -13 -108 -23 -214 -53 -307 -188 -307 -451
0 -163 38 -268 125 -348 91 -83 120 -89 395 -87 222 2 238 3 288 25 64 29 153
121 169 177 25 84 35 179 31 301 -3 117 -6 133 -32 183 -58 111 -102 148 -241
198 -64 23 -235 37 -320 25z m288 -226 c40 -20 66 -42 85 -70 26 -39 27 -45
26 -178 -1 -148 -6 -166 -63 -217 -57 -51 -79 -57 -206 -57 -166 0 -208 9
-256 52 -64 58 -69 75 -69 228 0 145 6 169 53 213 51 48 111 62 247 59 115 -2
130 -4 183 -30z"/>
<path d="M14260 8034 c-80 -7 -151 -13 -158 -13 -10 -1 -12 -93 -10 -443 l3
-443 95 0 95 0 5 140 5 140 144 0 c132 0 145 -2 158 -20 8 -11 50 -75 93 -142
l79 -123 84 0 c54 0 90 5 102 14 18 13 17 15 -10 67 -15 30 -50 88 -76 130
-27 42 -49 82 -49 90 0 8 19 27 41 43 28 20 50 47 67 85 23 49 26 69 27 161 0
119 -12 165 -57 216 -93 106 -260 131 -638 98z m462 -212 c26 -25 37 -117 18
-151 -6 -12 -26 -31 -43 -41 -28 -18 -51 -20 -204 -20 -214 0 -206 -5 -201
127 2 69 7 96 18 104 9 6 84 9 203 6 175 -4 190 -6 209 -25z"/>
<path d="M2914 8007 c-3 -8 -4 -52 -2 -98 l3 -84 162 -5 c89 -3 165 -9 170
-13 4 -5 10 -155 13 -333 4 -274 7 -326 20 -334 8 -6 56 -9 105 -8 l90 3 5
335 5 335 162 6 c89 3 165 8 169 12 13 13 17 153 5 175 l-12 22 -445 0 c-361
0 -446 -2 -450 -13z"/>
<path d="M5803 8008 c-17 -27 -33 -61 -33 -70 0 -5 -9 -22 -20 -38 -11 -15
-42 -81 -70 -146 -28 -66 -61 -137 -73 -159 -34 -65 -43 -84 -102 -215 -31
-69 -65 -141 -76 -161 -27 -53 -25 -87 6 -95 37 -9 158 4 171 19 6 7 21 37 34
67 39 96 22 91 283 88 l229 -3 36 -83 36 -83 95 3 96 3 -2 38 c-2 21 -12 55
-22 75 -11 20 -59 120 -106 222 -125 273 -131 284 -198 420 l-62 125 -107 3
c-78 2 -109 -1 -115 -10z m176 -333 c52 -103 83 -183 75 -196 -6 -10 -205 -12
-253 -3 -18 4 -30 12 -27 18 2 6 25 60 50 119 53 128 72 159 93 155 9 -2 37
-43 62 -93z"/>
<path d="M6577 8014 c-10 -10 32 -118 115 -294 66 -139 92 -194 182 -390 42
-91 80 -172 85 -180 6 -12 31 -15 120 -15 l113 0 29 55 c16 30 49 100 73 155
24 56 66 148 94 205 27 58 62 134 78 170 15 36 33 72 41 81 7 8 22 41 32 72
11 31 27 72 37 92 9 20 14 38 11 41 -2 3 -46 6 -97 7 -73 2 -94 -1 -101 -13
-22 -39 -108 -228 -114 -250 -4 -14 -15 -43 -25 -65 -10 -22 -26 -60 -36 -85
-45 -108 -120 -245 -134 -245 -18 0 -72 105 -141 280 -29 72 -73 173 -99 225
-26 52 -53 110 -60 128 l-12 32 -93 0 c-50 0 -94 -3 -98 -6z"/>
<path d="M7940 8018 c-2 -18 -3 -222 -2 -520 l2 -368 415 0 415 0 0 96 0 95
-217 -1 c-120 -1 -260 -1 -310 -1 l-93 1 0 65 c0 55 3 65 18 66 9 0 112 0 227
-1 118 0 216 4 225 9 16 11 27 132 16 176 l-6 25 -241 0 -240 0 3 78 3 77 305
0 305 0 3 103 3 102 -416 0 c-228 0 -415 -1 -415 -2z"/>
<path d="M9140 7575 l0 -445 408 2 407 3 3 93 3 92 -301 0 c-231 0 -302 3
-305 13 -3 6 -6 163 -7 347 l-3 335 -102 3 -103 3 0 -446z"/>
<path d="M10117 8013 c-4 -3 -7 -48 -7 -99 l0 -94 173 -2 172 -3 5 -340 c3
-187 7 -341 8 -342 1 -2 47 -3 102 -3 l100 0 2 343 3 342 170 6 c94 3 171 7
173 8 1 0 2 41 2 89 l0 89 -107 6 c-139 9 -788 9 -796 0z"/>
<path d="M12754 8006 c-3 -8 -4 -153 -2 -322 l3 -309 28 -54 c44 -82 109 -147
176 -172 130 -48 435 -48 531 1 64 33 130 99 158 160 l26 55 1 325 0 325 -100
0 -100 0 -5 -323 -5 -323 -25 -19 c-60 -47 -90 -54 -218 -53 -141 2 -176 14
-226 76 l-31 39 -3 298 c-4 344 10 310 -125 310 -57 0 -79 -4 -83 -14z"/>
</g>
</svg>
